<?xml version="1.0" ?><svg data-name="filled outline" id="filled_outline" viewBox="0 0 512 512" xmlns="http://www.w3.org/2000/svg"><path d="M320,352l-41.37259-41.37259a22.6274,22.6274,0,0,0-16-6.62741h0A22.62739,22.62739,0,0,0,240,326.62739v0a42.67316,42.67316,0,0,0,3.92765,17.8825L288,440v48H472V306.65856a80,80,0,0,0-25.28471-58.363l-88.09682-82.59077A50.67171,50.67171,0,0,0,323.962,152h0a50.67171,50.67171,0,0,0-22.66108,5.34955L256,180l64,92Z" style="fill:#67eba0"/><rect height="56" style="fill:#3cde8d" width="64" x="320" y="296"/><path d="M184,448a24,24,0,0,0,24,24h0a24,24,0,0,0,24-24V24H40V432a24,24,0,0,0,24,24h0a24,24,0,0,0,24-24v32a24,24,0,0,0,24,24h0a24,24,0,0,0,24-24V448a24,24,0,0,0,24,24h0a24,24,0,0,0,24-24Z" style="fill:#ffceb6"/><polygon points="225.608 193.608 192 160 216 136 247.87 167.87 225.608 193.608" style="fill:#ffb401"/><rect height="135.98898" style="fill:#ffc431" transform="translate(-74.75784 259.67734) rotate(-45)" width="79.19596" x="236.48138" y="152.08488"/><path d="M416,331.72a28.28026,28.28026,0,0,1-48.28,20l-63.56006-63.56006,40-40L407.72,311.72A28.27584,28.27584,0,0,1,416,331.72Z" style="fill:#ffe28f"/><path d="M416,331.72a28.28026,28.28026,0,0,1-48.28,20L336,320l10.34009-10.34009A19.31565,19.31565,0,0,1,360,304a19.30783,19.30783,0,0,0,13.65991-5.66L384,288l23.72,23.72A28.27584,28.27584,0,0,1,416,331.72Z" style="fill:#f5714f"/><rect height="22.62742" style="fill:#ffd873" transform="translate(-98.60721 305.94113) rotate(-45)" width="113.13708" x="263.43146" y="260.68629"/><path d="M288,496H472a8.00008,8.00008,0,0,0,8-8V306.65869A88.31789,88.31789,0,0,0,452.18652,242.459l-88.09668-82.59082a58.6723,58.6723,0,0,0-66.36718-9.67382l-16.14283,8.07153-19.9226-19.92261a8.00122,8.00122,0,0,0-11.31446,0L240,148.686l-18.34277-18.34278a8.00122,8.00122,0,0,0-11.31446,0L204,136.686,157.65723,90.34326l-11.31446,11.31348L192.686,148l-6.34327,6.34326a8,8,0,0,0,0,11.31348L204.686,184l-10.34327,10.34326a8,8,0,0,0,0,11.31348L276.686,288l-8.50684,8.507A30.62953,30.62953,0,0,0,232,326.62744a51.02377,51.02377,0,0,0,4.66406,21.23486L280,441.75732V488A8.00008,8.00008,0,0,0,288,496ZM203.31348,160,216,147.31348,228.686,160,216,172.686Zm8,40L256,155.31348,332.686,232,288,276.686Zm72,104L352,235.31348,356.68652,240,288,308.68652l-3.71582-3.71582ZM312,307.314l36.51611,36.51587L323.294,343.98l-23.98-23.97986Zm35.314,12.68592,4.686-4.6864A11.239,11.239,0,0,1,360,312a27.13767,27.13767,0,0,0,19.31445-8l4.68579-4.686,18.05933,18.05909a20.28426,20.28426,0,0,1-28.68652,28.686ZM368,292.68652A11.239,11.239,0,0,1,360,296a27.13767,27.13767,0,0,0-19.31445,8L336,308.68591,323.314,296,352,267.314,372.68628,288ZM251.19141,341.15723A34.90592,34.90592,0,0,1,248,326.62744a14.62689,14.62689,0,0,1,24.96973-10.34326l41.373,41.37256A8.03867,8.03867,0,0,0,320.04785,360l44.61133-.26562a36.28509,36.28509,0,0,0,48.71387-53.6753L363.314,256l10.34327-10.34326a8,8,0,0,0,0-11.31348l-16-16a8.00122,8.00122,0,0,0-11.31446,0L344,220.686l-50.49438-50.49439,11.37329-5.68677a42.671,42.671,0,0,1,48.26757,7.03614l88.09668,82.59082A72.25979,72.25979,0,0,1,464,306.65869V480H296V448h40V432H293.11865Z"/><rect height="16" width="16" x="360" y="432"/><path d="M112,496a32.05035,32.05035,0,0,0,30.196-21.42432A31.93264,31.93264,0,0,0,184,469.13208,31.97943,31.97943,0,0,0,240,448V392H224v56a16,16,0,0,1-32,0V352H176v96a16,16,0,0,1-32,0V352H128V464a16,16,0,0,1-32,0V315.84277A107.33594,107.33594,0,0,0,136,232V208H120v24a91.42224,91.42224,0,0,1-34.47852,71.73828l-2.51855,2.01465A7.99846,7.99846,0,0,0,80,312v48a16,16,0,0,1-32,0V32H224v88h16V24a8.00008,8.00008,0,0,0-8-8H40a8.00008,8.00008,0,0,0-8,8V432a31.97546,31.97546,0,0,0,48,27.69482V464A32.03635,32.03635,0,0,0,112,496ZM64,448a16.01833,16.01833,0,0,1-16-16V387.69482a31.88422,31.88422,0,0,0,32,0V432A16.01833,16.01833,0,0,1,64,448Z"/></svg>