<svg width="1096" height="1496" viewBox="0 0 1096 1496" fill="none" xmlns="http://www.w3.org/2000/svg">
<rect x="40.5" y="1496" width="293" height="1007" rx="40" transform="rotate(-90 40.5 1496)" fill="#414FB6"/>
<rect x="4.5" y="804" width="246" height="660" rx="40" fill="#3B82F6"/>
<rect x="285.5" y="549" width="246" height="915" rx="40" fill="#AECDFF"/>
<rect x="285.5" y="1282" width="246" height="182" rx="40" fill="#7491D7"/>
<rect x="566.5" y="649" width="246" height="815" rx="40" fill="#3B82F6"/>
<rect x="847.5" y="362" width="246" height="1102" rx="40" fill="#AECDFF"/>
<path d="M40 704.5C40 704.5 352 354.5 398.5 354.5C445 354.5 561 468 628 468C695 468 956.5 40 956.5 40M956.5 40C956.5 40 885 39.9998 778.5 84M956.5 40C956.5 40 993.5 121 998.5 199.5" stroke="white" stroke-width="80" stroke-linecap="round"/>
<circle cx="751" cy="1121.5" r="342.5" fill="#F4CC88"/>
<circle cx="751.5" cy="1122" r="260" fill="#EFA63A"/>
<circle cx="751.5" cy="1122" r="260" fill="#EFA63A"/>
<circle cx="751.5" cy="1122" r="240" fill="#F4CC88"/>
<path d="M285.5 1232.5C339 1202 416 1144.5 416 1144.5L539 1368L285.5 1424.5V1232.5Z" fill="#7491D7"/>
<path d="M539 1076C481.748 1070.62 410 1147 410 1147C410 1147 415.5 1223.5 458.5 1299C504.438 1379.66 624.083 1469.21 750.5 1464C884 1458.5 987 1404.5 1057.5 1274C1114 1152.5 1090.5 1076 1090.5 1076C1090.5 1076 1019 1177.3 950.5 1182.5C874.19 1188.29 862.529 1075.79 786 1076C723.826 1076.17 705.113 1155.34 643.5 1147C594.608 1140.38 588.122 1080.61 539 1076Z" fill="#F0A93E"/>
<path d="M504.287 1101C504.287 1101 495.138 1153.5 518.245 1207.41C540.832 1260.11 569.279 1295.54 625.605 1330.7C659.308 1351.73 718.496 1367.42 779.183 1360.23C851.514 1351.66 912.688 1309.24 942.871 1273.04C967.5 1243.5 972 1234 989.5 1195.5" stroke="#F4C980" stroke-width="20" stroke-linecap="round"/>
<path d="M751.707 1257V1219.19M751.707 1015.06C751.707 1015.06 866.5 1015.06 866.5 1113.45C866.5 1219.19 751.707 1219.19 751.707 1219.19M751.707 1015.06V1219.19M751.707 1015.06C751.707 1015.06 639.491 1015.1 636.562 1113.45C633.413 1219.19 751.707 1219.19 751.707 1219.19M751.707 1015.06V986" stroke="#DF883C" stroke-width="40" stroke-linecap="round"/>
</svg>
